/* XPM */
static char *bitcoin__[] = {
/* columns rows colors chars-per-pixel */
"64 64 204 2",
"   c #010001",
".  c #090007",
"X  c #0D020B",
"o  c #11050F",
"O  c #140712",
"+  c #190616",
"@  c #170814",
"#  c #190916",
"$  c #1D0C1B",
"%  c #271223",
"&  c #291225",
"*  c #2E1529",
"=  c #2F1A2C",
"-  c #30192C",
";  c #351B31",
":  c #3F2339",
">  c #42253C",
",  c #452740",
"<  c #472C43",
"1  c #482C44",
"2  c #4D2D48",
"3  c #532E4D",
"4  c #51344C",
"5  c #582F51",
"6  c #5D3556",
"7  c #5C3C56",
"8  c #69245E",
"9  c #6A285F",
"0  c #6A2D60",
"q  c #712D66",
"w  c #6E3564",
"e  c #75326A",
"r  c #79336D",
"t  c #763C6C",
"y  c #793D6F",
"u  c #7C3D71",
"i  c #63425D",
"p  c #674060",
"a  c #6B4565",
"s  c #6A4D65",
"d  c #75436D",
"f  c #79436F",
"g  c #744D6E",
"h  c #6F5169",
"j  c #72536D",
"k  c #7B4472",
"l  c #7D4B75",
"z  c #795272",
"x  c #7B5A75",
"c  c #814577",
"v  c #804A77",
"b  c #84447A",
"n  c #89477E",
"m  c #844C7A",
"M  c #894D7E",
"N  c #84537C",
"B  c #845A7D",
"V  c #82647C",
"C  c #8B4D80",
"Z  c #875680",
"A  c #8B5482",
"S  c #875A80",
"D  c #8A5C82",
"F  c #905586",
"G  c #905B87",
"H  c #935689",
"J  c #935C8A",
"K  c #985E8E",
"L  c #975F90",
"P  c #876081",
"I  c #8C6285",
"U  c #876A82",
"Y  c #8C6E87",
"T  c #8F6488",
"R  c #8F6989",
"E  c #93648B",
"W  c #936B8D",
"Q  c #98688F",
"!  c #94718E",
"~  c #9A6492",
"^  c #976D90",
"/  c #9D6C95",
"(  c #9F6F98",
")  c #977391",
"_  c #997393",
"`  c #977892",
"'  c #9B7996",
"]  c #9F7498",
"[  c #9D7E98",
"{  c #A16497",
"}  c #A06B97",
"|  c #A5679B",
" . c #A16D99",
".. c #A8689E",
"X. c #A07397",
"o. c #A3729A",
"O. c #A47C9D",
"+. c #AE74A4",
"@. c #A97BA2",
"#. c #B57BAD",
"$. c #9F839B",
"%. c #A2849D",
"&. c #A2899E",
"*. c #A685A1",
"=. c #AA83A4",
"-. c #A58CA1",
";. c #AB8CA5",
":. c #AF86A8",
">. c #AF8BA9",
",. c #B285AA",
"<. c #B984AF",
"1. c #B28BAB",
"2. c #A792A3",
"3. c #A991A5",
"4. c #AD95A9",
"5. c #AE99AB",
"6. c #B292AD",
"7. c #B19BAE",
"8. c #BF8BB6",
"9. c #B993B3",
"0. c #B59DB1",
"q. c #BA9CB5",
"w. c #BF99B9",
"e. c #B5A2B2",
"r. c #BBA7B7",
"t. c #B6A8B3",
"y. c #B8A9B6",
"u. c #BFA3BA",
"i. c #BDACBB",
"p. c #BEB2BC",
"a. c #C29DBC",
"s. c #C2A6BD",
"d. c #C1AABD",
"f. c #C1B4BF",
"g. c #C1B8BF",
"h. c #CB99C2",
"j. c #C7A7C2",
"k. c #CCA5C6",
"l. c #C5ACC1",
"z. c #CBABC5",
"x. c #CEADC8",
"c. c #D3ACCD",
"v. c #C4B4C2",
"b. c #CAB3C6",
"n. c #C4BCC3",
"m. c #C9BDC6",
"M. c #CDB2C9",
"N. c #CDBCCA",
"B. c #D2B4CD",
"V. c #D2BBCD",
"C. c #D8B4D2",
"Z. c #D5BDD1",
"A. c #DABFD6",
"S. c #C6C0C5",
"D. c #C8C3C7",
"F. c #CCC5CB",
"G. c #CFCACE",
"H. c #D1C6CF",
"J. c #D0CBCF",
"K. c #CFCBD0",
"L. c #D4C5D2",
"P. c #DAC4D6",
"I. c #D1CDD1",
"U. c #DAC9D7",
"Y. c #DDCBDA",
"T. c #D5D3D5",
"R. c #D8D1D7",
"E. c #D5DCD6",
"W. c #D7D7D8",
"Q. c #DDD3DC",
"!. c #D7D9D8",
"~. c #DADCDB",
"^. c #E0C2DB",
"/. c #E0CFDE",
"(. c #E0D5DF",
"). c #E0DCDF",
"_. c #DEE1DE",
"`. c #E0E3DF",
"'. c #E4D4E1",
"]. c #E3DCE2",
"[. c #EAD9E7",
"{. c #DFE3E0",
"}. c #DDEAE0",
"|. c #E2E5E2",
" X c #E8E5E7",
".X c #E4EAE5",
"XX c #EBE6EA",
"oX c #E7ECE8",
"OX c #EAEDEB",
"+X c #F2E2EF",
"@X c #E4F2E6",
"#X c #E7F1E9",
"$X c #ECF3ED",
"%X c #EDF9EF",
"&X c #F2EDF2",
"*X c #EFF5F0",
"=X c #EFFAF1",
"-X c #F3F5F3",
";X c #F8F7F7",
":X c #F4FBF5",
">X c #F8F7F8",
",X c #F6FDF8",
"<X c #FDFEFD",
"1X c None",
/* pixels */
"1X1X1X1X1X1X1X1X1X1X1X1X1X1X1X1X1X1X1X1X1X1X1X1X1X1X1X1X1X1X1X1X1X1X1X1X1X1X1X1X1X1X1X1X1X1X1X1X1X1X1X1X1X1X1X1X1X1X1X1X1X1X1X1X",
"1X1X1X1X1X1X1X1X1X1X1X1X1X1X1X1X1X1X1X1X1X1X1X1X1X1X1X1X1X1X1X1X1X1X1X1X1X1X1X1X1X1X1X1X1X1X1X1X1X1X1X1X1X1X1X1X1X1X1X1X1X1X1X1X",
"1X1X1X1X1X1X1X1X1X1X1X1X1X1X1X1X1X1X1X1X1X1X1X1X1X1X1X1X1X1XV z P R 1X1X1X1X1X1X1X1X1X1X1X1X1X1X1X1X1X1X1X1X1X1X1X1X1X1X1X1X1X1X",
"1X1X1X1X1X1X1X1X1X1X1X1X1X1X1X1X1X1X1X1X1X1X1X1Xz B ^ ;.q.q.b.V.V.b.u.q.>.=.O.@.1X1X1X1X1X1X1X1X1X1X1X1X1X1X1X1X1X1X1X1X1X1X1X1X",
"1X1X1X1X1X1X1X1X1X1X1X1X1X1X1X1X1X1X1X1X1Xa D *.l.P..X:X:X,X<X<X<X<X<X<X:XOXP.b.1.@.=.1X1X1X1X1X1X1X1X1X1X1X1X1X1X1X1X1X1X1X1X1X",
"1X1X1X1X1X1X1X1X1X1X1X1X1X1X1X1X1X1X1Xg _ l.Q.$X:X:X*XOXoXOXOXOX$X$X&X-X-X<X<X<X,X'.l.=.=.1X1X1X1X1X1X1X1X1X1X1X1X1X1X1X1X1X1X1X",
"1X1X1X1X1X1X1X1X1X1X1X1X1X1X1X1X1X6 _ m..X:X%X.X}..X.X|.oXoXOX$XOX$X-X$X-X-X:X-X>X<X<X:Xz.@.:.1X1X1X1X1X1X1X1X1X1X1X1X1X1X1X1X1X",
"1X1X1X1X1X1X1X1X1X1X1X1X1X1X1X1XZ l.|.=X.X_._.|..X.X.X.XoXOXOXOX&X$X$X$X&X-X-X:X:X,X>X<X<X>Xs.o.j.1X1X1X1X1X1X1X1X1X1X1X1X1X1X1X",
"1X1X1X1X1X1X1X1X1X1X1X1X1X1X4 @.R.%X.X~._._.`.|.|..X.XoX.XOXoXoX$XOX&X%X$X-X-X-X;X;X:X>X;X<X<X[.@.,.1X1X1X1X1X1X1X1X1X1X1X1X1X1X",
"1X1X1X1X1X1X1X1X1X1X1X1X1Xl s.oX%X~.~._._._.`.`.|.|.|..X.XoXOXOXOX$X$X&X%X-X-X-X-X:X>X>X,X>X<X<X<X9.O.1X1X1X1X1X1X1X1X1X1X1X1X1X",
"1X1X1X1X1X1X1X1X1X1X1X1Xz M.$X|.W.~.~.`._._.`.|.|..X|..XoXOX%X-X-X-X*X*X-X&X-X:X:X;X;X,X,X<X<X<X<X<XV. .1X1X1X1X1X1X1X1X1X1X1X1X",
"1X1X1X1X1X1X1X1X1X1X1XN L.#X~.T.~.~.~.~._._._.`.|..X%X,X,X:X$XOX#X$X,X<X<X<X,X-X-X:X:X>X>X,X;X>X<X<X<XY.} 1X1X1X1X1X1X1X1X1X1X1X",
"1X1X1X1X1X1X1X1X1X1Xg V.#XW.W.W.~.~.~.~._._.~.oX:X%X!.v.7.;.' ^ W _ O.6.d.L.*X<X<X;X:X;X:X>X<X;X<X<X<X<X(. .1X1X1X1X1X1X1X1X1X1X",
"1X1X1X1X1X1X1X1X1X6 B.@XT.T.W.!.!.~.~.~.~._.:XoXf.%.S f t k Z T E D m y t v / q.(.<X<X:X>X>X>X<X>X<X<X<X<X/.9.1X1X1X1X1X1X1X1X1X",
"1X1X1X1X1X1X1X1X; a..X!.T.T.T.!.!.~.~.!.%X#Xp.W f y W e.I.Q.|. X X|.].R.v.O.m e A 1.[.<X<X>X,X,X<X>X<X<X<X<Xo.a.1X1X1X1X1X1X1X1X",
"1X1X1X1X1X1X1Xo O.|.~.T.T.T.W.!.!.E.~.=XE.' f l *.R.OX].J.u.6.;.;.1.q.N.(.XX).s.S r D z.<X<X>X<X>X<X<X<X<Xw.b ~ '.1X1X1X1X1X1X1X",
"1X1X1X1X1X1X1Xa Y.}.I.T.T.T.!.W.W.~.%Xg.B f ` W.$XG.O.I N D D E I I D M B / q.|. X6.u u ,.>X<X>X<X<X<X<X1.b | A ,.1X1X1X1X1X1X1X",
"1X1X1X1X1X1X& a.{.T.T.T.T.T.T.T.!.%Xt.l l e.:XH.R m I ) _ ` _ _ _ X._ _ ( ^ A M 6.-X'.A r  .-X<X>X<X<X@.b  . ./ F B.1X1X1X1X1X1X",
"1X1X1X1X1X1XB Q.!.I.T.J.T.T.T.T.%Xy.l N F.:X%.v E ' _ _ _ _ _ _ _ _ _ / / _ _ ( A J (.:XQ e o.>X<X&X} n  . .} } H o.1X1X1X1X1X1X",
"1X1X1X1X1X& l._.J.T.I.T.T.T.T.#Xn.v m I.OXI B ' ` _ ! _ _ ^ _ ^ _ _ ^ ) _ / _ / ] E b b.<X^ r 6.Y.( C o.} / } { | A M.1X1X1X1X1X",
"1X1X1X1X1Xj '.!.J.T.T.T.T.T.|.E.I l D.#XB I ' _ _ _ ! ) ) _ _ ^ / / _ ) / / _ ^ ^ _ / b d.<XJ C H K  .} } } } } / K @.1X1X1X1X1X",
"1X1X1X1XO 6.|.I.G.G.J.T.I.T.oX%.k e.=XI I ' ! _ _ ! _ ) ) _ _ _ _ _ _ ^ _ _ _ ( ( _ ( ( b U.OXv / ( / / } / / } / ~ J Z.1X1X1X1X",
"1X1X1X1X1 P.~.I.G.T.G.T.I..Xp.l ' %X%.B ' ) _ _ ) _ ) _ _ Q ` _ _ _ / Q E D A Z A E X.( / m ;Xv.c o.} ( } { } } | / H 8.1X1X1X1X",
"1X1X1X1XB (.T.J.T.G.T.I.E._.' D %.2.I ` _ ) _ ) _ _ ` ) _ ) E D D B D T _ =.q.M.L.%.D / X.F O.<XE K } } / } } } ( | K @.1X1X1X1X",
"1X1X1XX >.{.I.G.I.I.T.I.|.n.B ' ! I ) _ ) ` ) W W I S S S E ' *.q.v.J.).$X,X<X<X<XH.l o.( } b (.L.b o.} / / / { / / ~ | 1X1X1X1X",
"1X1X1X- x.~.G.K.I.I.T.K..X3.D ` ) ' ) ` ) D D W ' -.7.f.G.E.OX=X,X,X,X,X-X:X,X<X<X].N _ ( _ G =.:XE ~ } / ( | / / } ~ ~ Z.1X1X1X",
"1X1X1X4 U.W.H.I.K.I.J.T.T.) W ` ) ` _ ^ ! t.G.T.|.#X%X%X=X$XOX%X=X,X,X,X:XOX).L.b.;.E ( ( ( / A XXu.M  ./ { } } { / / J z.1X1X1X",
"1X1X1Xh Q.T.G.J.I.I.J._.n.D _ ) _ ) ) T $.@X$X.X|..XOX%X=X=X$X|.!.F.f.7.*.' E D m N ( X./ ^ / M N.Q.n  ./ / } / | ( / H a.1X1X1X",
"1X1X  V ].I.G.G.J.I.G._.y.P ` _ _ ) ) W ) E.=X#X.X_.G.S.y.5.%.` T D N m v m N Z E X.E _ _ ( ( J 1. XE } ( / } / } } / J 1.1X1X1X",
"1X1X  ` ].I.G.I.J.I.I.`.7.P _ _ ` ) ) ) W t.p.4.$.! R D N N l N N S R ' =.0.v.L.|.<X7.M _ ^ / ~ X. XO.K } / } { } } } K @.1X1X1X",
"1X1X. $._.K.G.J.I.I.I._.-.I ` _ _ _ _ _ ) T B N N N B P R ' -.e.v.H.~.*X,X<X<X<X,X<XJ.v  ./ / Q ~ |.:.J } / / / ~  .} ~  .1X1X1X",
"1X1X. -.].K.K.J.G.I.J._.-.I ` _ ` ) ) ) ' W R ' &.e.p.F.E.oX=X:X:X:X=X#X$X=X,X<X<X<XL.N / ( / / E ].6.F } } / ( | } | ~ ~ V.1X1X",
"1X1X. %._.K.G.K.K.G.I.~.-.I _ ) ` ) ) _ R $.E.`.#X%X%X#X.X.X|.#X=X=X,X,X=XoXR.N.d.1._ Q _ / / ^ K ].6.H } / / / } } } ~ ~ B.1X1X",
"1X1X  $.].K.G.H.I.I.K.|.&.D _ ) _ _ ) ) T -.#X|.`.`.oX%X=X%X#X~.I.D.r.>.[ ^ A l f y m / X._ ( / E ].:.J } } } } } } } ~  .d.1X1X",
"1X1X  ! ].K.G.K.K.K.J.{.7.P ) _ ! _ _ ` W ) E.=X`.W.J.f.e.;.%.W D v k k k N E ] :.s.v.W ~ _ / ^ _ -XO.K / } } } } } } ~ o.d.1X1X",
"1X1X  V ].I.G.G.J.J.G._.p.D ' ) _ ) ) _ ` ! &.4.[ W B N k v v N W ' ;.0.v.L._.*X,X<X<Xe.v X._ F ,. X~ ^ / } / / { / } K +.1X1X1X",
"1X1X1Xs Q.R.K.G.G.J.G.!.n.I ' _ _ ` _ ! ` ' G l m B W [ &.e.f.H.E.oX=X,X,X,X,X=X:X,X<XJ.v } ( A b.(.M X.( / } / / } } K @.1X1X1X",
"1X1X1X< P.W.G.K.G.G.I.I.~.' I ` _ ! _ ` ` ! ! 7.f.D.T.`.$X=X=X=X$XoX$X*X,X,X,X=XOX).L.6.I _ / Z |.l.M ~ ( / / ( } } } ~ <.1X1X1X",
"1X1X1X% l.~.G.K.G.J.J.J.|.5.B ' ) _ ` _ ! T 2.%X#X.X.X`.`.#X%X=X=X$X.XT.F.p.7.*./ I B J ' ( E o.:X/ F E M K o. ./ } } { 9.1X1X1X",
"1X1X1X. %.].I.G.G.J.J.J.~.D.D ` ) ) _ _ ` W $._.%X#X#X.X~.T.g.d.4.%.) T S S D G Q ^ _ _ / _ m L.(.q s.&Xs.E b J  .} ~ +.4.1X1X1X",
"1X1X1X  j '.T.G.K.G.K.J.G.|.%.D ' ! ) _ ` W ` n.D.e.-.%.) I B B D T E ) _ _ _ _ _ ^ / ^ _ K _ <X( m -X<X<X>XM.} n F L <.1X1X1X1X",
"1X1X1X1X; Z.~.G.G.K.G.I.G.~.D.B ^ ` ) _ ) _ _ T I D I T W ) _ _ ) ) _ _ ^ _ _ _ / _ _ _ ^ v XXU.8 s.<X;X,X<X<X<XL.O.H 1.1X1X1X1X",
"1X1X1X1X. *.{.I.G.G.L.G.I.G..X4.N ' ) ` _ ` ! _ _ ) _ ` ` ) ) _ ) _ ) _ _ _ _ _ _ / _ X.k b.<Xc F :X<X-X>X>X,X<X<X<Xc.E 1X1X1X1X",
"1X1X1X1X1X7 Y.W.G.G.G.K.I.K.T.~.W I [ W D W ` _ ) ) ) ) _ ) ) ) _ ) ) ) _ ^ _ ^ _ _ _ v 6.<XQ e (.<X-X:X,X>X>X>X<X<Xk.1X1X1X1X1X",
"1X1X1X1X1Xo q.~.K.H.K.G.G.J.G._.I.B D 5.D.B I ' ` _ _ ) ) ) ) ) ) ) ) ) ) _ _ _ ' / l 6.<X*.8 f.<X-X-X:X-X>X>X>X<X^.Q 1X1X1X1X1X",
"1X1X1X1X1X  7 '.E.G.K.G.I.K.K.G..XS.l W ~._.R N _ _ ) _ ) _ ) ) _ ) / ) ) ) _ ' D v b.<X*.8 q.<X:X-X-X-X:X;X>X<X<Xa.1X1X1X1X1X1X",
"1X1X1X1X1X1XX 1.|.I.G.G.I.G.T.G.G..XD.l k n.#Xt.B B ) X._ ` ` ) ) ) _ ` ' _ D v O.].&XQ 9 u.<X;X&X-X:X-X;X:X:X<X^.m 1X1X1X1X1X1X",
"1X1X1X1X1X1X1X> Z._.G.G.J.K.K.G.T.G..XT.W t -.~.W.e.W B B I R W Q R T D N D *.Q.:XN.f t b.<X:XOX*X-X-X-X:X:X<X&X#.1X1X1X1X1X1X1X",
"1X1X1X1X1X1X1X  B ].T.G.G.I.G.I.K.J.G.}.|.4.g k 7.!._.G.y.-.%.` ' [ %.7.F.).oXL.I 9 ' [.<X*XOX$X-X*X:X-X-X<X<Xh.1X1X1X1X1X1X1X1X",
"1X1X1X1X1X1X1X1XX =.].T.G.G.J.K.T.J.T.G.E.#XF.%.l f ' f.T.~.~._._.|.|.Q.I.;.N w Q F.,X,XOX#X&X$X&X*X*X-X>X<XB.M 1X1X1X1X1X1X1X1X",
"1X1X1X1X1X1X1X1X1X& a.|.T.G.J.T.T.J.T.I.I.J.|.oXG.5.W l k N T W ! W S l k S 3.L.-X<X$X X$XOX-X&X&X*X-X-X<X^...1X1X1X1X1X1X1X1X1X",
"1X1X1X1X1X1X1X1X1X  : z.{.I.G.G.I.J.G.T.T.T.T.T.{.%X{.K.f.e.-.%.%.&.5.v.I..X:X:XoX.XoXOX$XOX$XOX*X*X-X<X'.{ 1X1X1X1X1X1X1X1X1X1X",
"1X1X1X1X1X1X1X1X1X1X  , k.|.T.G.J.I.J.J.I.I.I.T.T.T.!.|.#X#X%X#X%X%X%X%X*XoX|.|..XoX.XoXOXOX$X$X$X*X<X'...1X1X1X1X1X1X1X1X1X1X1X",
"1X1X1X1X1X1X1X1X1X1X1X  > a.].E.J.G.I.T.T.T.T.T.T.E.W.W.W.~.~.~.~.~._._._.|..X.X.X.XoXoXOX#XOX$X,X<XP.K 1X1X1X1X1X1X1X1X1X1X1X1X",
"1X1X1X1X1X1X1X1X1X1X1X1X  * =.]._.T.G.I.I.T.T.T.T.T.E.W.!.!.~._.~._._._.{.|..X|.|.oXoXOXOXOXOX<X<Xc.M 1X1X1X1X1X1X1X1X1X1X1X1X1X",
"1X1X1X1X1X1X1X1X1X1X1X1X1X1XO S L._._.I.I.I.I.T.T.T.T.W.!.~.~.~.~._.~.`.{.{..X|..XoX|.oX.X:X<X+X8.6 1X1X1X1X1X1X1X1X1X1X1X1X1X1X",
"1X1X1X1X1X1X1X1X1X1X1X1X1X1X1X  2 1.Q.|.!.T.T.T.T.T.W.!.!.!.!.~._._._._.`.|.|.|.|.|..X-X<X>XC.N 1X1X1X1X1X1X1X1X1X1X1X1X1X1X1X1X",
"1X1X1X1X1X1X1X1X1X1X1X1X1X1X1X1X1X@ a q.Y..X|.!.T.T.T.T.!.!.!.~.~.~._.~._._.|.|.#X:X,X-XA.( 5 1X1X1X1X1X1X1X1X1X1X1X1X1X1X1X1X1X",
"1X1X1X1X1X1X1X1X1X1X1X1X1X1X1X1X1X1X  $ i *.P.]..X.X`.`.~.~.~.~.~.~._.|.oX%X:X,X=X[.x.W 3 1X1X1X1X1X1X1X1X1X1X1X1X1X1X1X1X1X1X1X",
"1X1X1X1X1X1X1X1X1X1X1X1X1X1X1X1X1X1X1X1X1Xo > x ;.b.(.]. XOXoX%X%X$X-X:XOX].P.r.' w - 1X1X1X1X1X1X1X1X1X1X1X1X1X1X1X1X1X1X1X1X1X",
"1X1X1X1X1X1X1X1X1X1X1X1X1X1X1X1X1X1X1X1X1X1X1X1XX - 4 j Y $.;.6.0.6.%.U s 1 & + 1X1X1X1X1X1X1X1X1X1X1X1X1X1X1X1X1X1X1X1X1X1X1X1X",
"1X1X1X1X1X1X1X1X1X1X1X1X1X1X1X1X1X1X1X1X1X1X1X1X1X1X1X1X1X. O O # # 1X1X1X1X1X1X1X1X1X1X1X1X1X1X1X1X1X1X1X1X1X1X1X1X1X1X1X1X1X1X",
"1X1X1X1X1X1X1X1X1X1X1X1X1X1X1X1X1X1X1X1X1X1X1X1X1X1X1X1X1X1X1X1X1X1X1X1X1X1X1X1X1X1X1X1X1X1X1X1X1X1X1X1X1X1X1X1X1X1X1X1X1X1X1X1X",
"1X1X1X1X1X1X1X1X1X1X1X1X1X1X1X1X1X1X1X1X1X1X1X1X1X1X1X1X1X1X1X1X1X1X1X1X1X1X1X1X1X1X1X1X1X1X1X1X1X1X1X1X1X1X1X1X1X1X1X1X1X1X1X1X"
};
