/* XPM */
static char *bitcoin__[] = {
/* columns rows colors chars-per-pixel */
"32 32 133 2",
"   c #080006",
".  c #372333",
"X  c #3A2736",
"o  c #3D2A39",
"O  c #453242",
"+  c #4F3B4C",
"@  c #523B4E",
"#  c #7F3B73",
"$  c #4F414D",
"%  c #51434E",
"&  c #554753",
"*  c #564A54",
"=  c #5D4D59",
"-  c #6A5766",
";  c #72526C",
":  c #705B6C",
">  c #803A75",
",  c #884A7C",
"<  c #84557C",
"1  c #855A7E",
"2  c #80637C",
"3  c #8D4E82",
"4  c #8C5382",
"5  c #875B80",
"6  c #8B5C83",
"7  c #905385",
"8  c #925789",
"9  c #935C8A",
"0  c #985E8E",
"q  c #8C6286",
"w  c #866C81",
"e  c #8F6588",
"r  c #8D6B89",
"t  c #92658B",
"y  c #99638F",
"u  c #936B8D",
"i  c #8F758B",
"p  c #9B6492",
"a  c #976C90",
"s  c #9D6B95",
"d  c #967291",
"f  c #9A7493",
"g  c #9B7A96",
"h  c #9E7798",
"j  c #9D7D98",
"k  c #A06B97",
"l  c #A16D98",
"z  c #A4719C",
"x  c #A37D9D",
"c  c #AA70A0",
"v  c #988496",
"b  c #9E8C9B",
"n  c #A2839D",
"m  c #A08C9D",
"M  c #A686A1",
"N  c #AA83A3",
"B  c #A68AA1",
"V  c #AB8AA5",
"C  c #AE89A9",
"Z  c #B086AA",
"A  c #B28DAC",
"S  c #AC91A7",
"D  c #AE94A9",
"F  c #AE99AB",
"G  c #B295AD",
"H  c #B19BAE",
"J  c #B694B0",
"K  c #BA93B3",
"L  c #B59CB1",
"P  c #BB99B5",
"I  c #BF9DB9",
"U  c #B5A1B1",
"Y  c #BAA2B6",
"T  c #B6A8B3",
"R  c #BEA3B9",
"E  c #BDACBA",
"W  c #C2A1BC",
"Q  c #C2ADBF",
"!  c #C1B3BF",
"~  c #C5ACC1",
"^  c #CBAEC5",
"/  c #C4B5C2",
"(  c #C9B4C6",
")  c #C6BEC5",
"_  c #C9BEC6",
"`  c #CFB4CA",
"'  c #CCBBCA",
"]  c #D2B9CD",
"[  c #D7B0D1",
"{  c #E0BEDA",
"}  c #C8C4C7",
"|  c #CDC6CC",
" . c #CFCACE",
".. c #D1C4CF",
"X. c #D0CBCF",
"o. c #CFCDD0",
"O. c #D5C4D2",
"+. c #D8C3D4",
"@. c #D1CED1",
"#. c #DBC7D8",
"$. c #DACCD9",
"%. c #D4D3D4",
"&. c #D7DAD7",
"*. c #D8D8D7",
"=. c #DCD6DC",
"-. c #D7D9D8",
";. c #DBDCDB",
":. c #DDE1DE",
">. c #EDCAE7",
",. c #E5D6E3",
"<. c #E5D8E3",
"1. c #E9DFE8",
"2. c #DFE3E0",
"3. c #E1E5E2",
"4. c #E4EBE5",
"5. c #EEE4ED",
"6. c #E7EDE8",
"7. c #EBEEEC",
"8. c #E5F1E6",
"9. c #E7F0E9",
"0. c #EBF2EC",
"q. c #F4E3F2",
"w. c #F2E9F1",
"e. c #F8EEF6",
"r. c #FAEEF9",
"t. c #EFF4F2",
"y. c #EEFAF1",
"u. c #F2F4F3",
"i. c #F3FCF4",
"p. c #F8F4F8",
"a. c #F6FDF9",
"s. c #FEFEFE",
"d. c None",
/* pixels */
"d.d.d.d.d.d.d.d.d.d.d.d.d.d.d.d.d.d.d.d.d.d.d.d.d.d.d.d.d.d.d.d.",
"d.d.d.d.d.d.d.d.d.d.d.d.d.2 v D J J V d.d.d.d.d.d.d.d.d.d.d.d.d.",
"d.d.d.d.d.d.d.d.d.d.r ! =.a.a.s.s.a.u.,.] A d.d.d.d.d.d.d.d.d.d.",
"d.d.d.d.d.d.d.d.1 ..a.a.i.0.7.7.0.u.a.s.s.a.+.K d.d.d.d.d.d.d.d.",
"d.d.d.d.d.d.d.J s.i.:.:.2.4.0.u.a.u.u.u.u.s.s.w.W d.d.d.d.d.d.d.",
"d.d.d.d.d.d.] s.:.-.:.3.i.a.0.3.3.t.s.s.a.a.a.s.s.^ d.d.d.d.d.d.",
"d.d.d.d.d.` s.%.&.-.y.0.E n x M M x x W u.s.a.a.s.s.+.d.d.d.d.d.",
"d.d.d.d.M s.%.*.;.i.) r n L Y Y R Y G x 8 I s.s.a.s.1.p d.d.d.d.",
"d.d.d.@ s.&.%.-.y.F 6 E E B a e t t x R Q t k s.s.,.8 > W d.d.d.",
"d.d.d.( 0.o.@.0.F q | n < r f a f f a 4 s O.s N #.7 8 k 9 d.d.d.",
"d.d.@ r.%. .2.) u } u q g f f d a a t 6 4 6 O.N > s l l 3 P d.d.",
"d.d.m u. .%.2.d S n q d t 6 5 6 5 t f C V 9 y O.s p k l 0 z d.d.",
"d.d.] 3. .:.) q u u u e g B L _ =.u.s.s.w.q 4 P Q 3 k k p k d.d.",
"d.X <.%.o.3.F 6 f q U 0.y.s.s.a.0.$.E V t t f k ( p k s k 0 d.d.",
"d.% 5.@.@.;.n q f q T *.T n u 6 < < 9 j R x t 9 Q N y k l 7 ^ d.",
"d.= w.X.@.*.j u f g r 1 r j F ) :.a.s.s.s.D 4 0 W A 0 k k 8 K d.",
"d.= w.o.@.&.j e f e g 8.s.s.s.y.3.' H x t 6 f 8 R G 0 k k 8 Z d.",
"d.$ 5.@.@.;.m e f u g / H g u q 6 t h G O./ 9 9 ~ C y s k 0 K d.",
"d.. <.%.| 2.F 6 g d u u g F / ;.y.s.s.s.s.O.4 a ( 4 8 z k k V d.",
"d.d.( 1.| *.) 6 g d 1 } s.y.8.;.| E S x y t 6 P R x c < 3 c d.d.",
"d.d.v p.| o.2.n 1 g r B F j u q < 5 6 t a y y / s s.s.] z l d.d.",
"d.d.O w.@.| ;.o.1 d d 6 q q u f f f f f a < ] f ~ s.a.s.s.x d.d.",
"d.d.d.Y t.}  .2.E 1 E g 6 d f f f f f 1 t ( f N s.a.a.s.q.d.d.d.",
"d.d.d.o p.%. .o.4.E g H L j r e q q f L Q f A s.u.u.a.s.z d.d.d.",
"d.d.d.d.w s. . .@.4.} j B S F F H G G D x ( s.u.t.u.s.[ d.d.d.d.",
"d.d.d.d.d.J s. . . .2.4.E F F F H H G ! u.a.0.0.y.s.>.d.d.d.d.d.",
"d.d.d.d.d.  L s.&.| @.%.3.9.3.:.:.8.i.i.7.4.7.u.s.{ d.d.d.d.d.d.",
"d.d.d.d.d.d.d.i r.u.%.@.%.&.&.:.2.:.:.3.3.6.s.s.P d.d.d.d.d.d.d.",
"d.d.d.d.d.d.d.d.O E e.a.6.:.;.;.:.:.0.i.s.s.#.; d.d.d.d.d.d.d.d.",
"d.d.d.d.d.d.d.d.d.d.@ b ..5.p.s.s.s.7.%.Y ; d.d.d.d.d.d.d.d.d.d.",
"d.d.d.d.d.d.d.d.d.d.d.d.d.o & - : * d.d.d.d.d.d.d.d.d.d.d.d.d.d.",
"d.d.d.d.d.d.d.d.d.d.d.d.d.d.d.d.d.d.d.d.d.d.d.d.d.d.d.d.d.d.d.d."
};
