/* XPM */
static char *bitcoin__[] = {
/* columns rows colors chars-per-pixel */
"16 16 162 2",
"   c #3F353D",
".  c #3F363D",
"X  c #433942",
"o  c #443B43",
"O  c #574955",
"+  c #7F4F76",
"@  c #85427A",
"#  c #804F78",
"$  c #825179",
"%  c #83527B",
"&  c #85517C",
"*  c #84567D",
"=  c #8F4F84",
"-  c #895C82",
";  c #8B5E83",
":  c #8A5F83",
">  c #8E5E85",
",  c #915788",
"<  c #96578B",
"1  c #945C8B",
"2  c #965B8C",
"3  c #965E8C",
"4  c #8D6386",
"5  c #8E6387",
"6  c #8E6487",
"7  c #94628B",
"8  c #93678B",
"9  c #96648E",
"0  c #95668E",
"q  c #906889",
"w  c #906989",
"e  c #956C8D",
"r  c #966E8F",
"t  c #897C87",
"y  c #96728F",
"u  c #9A6290",
"i  c #9C6694",
"p  c #9E6994",
"a  c #9F6896",
"s  c #987292",
"d  c #997592",
"f  c #987693",
"g  c #9C7195",
"h  c #9D7397",
"j  c #9A7795",
"k  c #9D7497",
"l  c #9E7797",
"z  c #9B7896",
"x  c #9B7996",
"c  c #9E7E99",
"v  c #A07498",
"b  c #A07799",
"n  c #A4729C",
"m  c #A37A9D",
"M  c #AA79A3",
"N  c #928390",
"B  c #9D899A",
"V  c #A4859F",
"C  c #A3889F",
"Z  c #A780A0",
"A  c #A983A3",
"S  c #AA83A3",
"D  c #AB86A4",
"F  c #AC86A6",
"G  c #A488A0",
"H  c #A489A0",
"J  c #AA8BA4",
"K  c #AC8BA7",
"L  c #AB8EA7",
"P  c #B285AA",
"I  c #B38FAC",
"U  c #B28FAD",
"Y  c #A792A4",
"T  c #AC95A9",
"R  c #AD96A9",
"E  c #B390AD",
"W  c #B294AD",
"Q  c #B29FAF",
"!  c #B798B2",
"~  c #B79BB3",
"^  c #BE9CB9",
"/  c #ACA5AB",
"(  c #B0A4AF",
")  c #B6A5B3",
"_  c #B7A0B4",
"`  c #BAA4B7",
"'  c #BBA6B7",
"]  c #B6AAB4",
"[  c #B9AAB7",
"{  c #BCA2B8",
"}  c #BDB1BC",
"|  c #BFB3BD",
" . c #C2ADBF",
".. c #C6AAC1",
"X. c #C7ADC3",
"o. c #C6AFC2",
"O. c #C4B1C0",
"+. c #C5B1C2",
"@. c #C2B7C0",
"#. c #C6B5C3",
"$. c #C7B2C4",
"%. c #CDB1C7",
"&. c #C9B7C5",
"*. c #C8B7C6",
"=. c #C1B8C0",
"-. c #C3B9C1",
";. c #C1BBC0",
":. c #C5B9C4",
">. c #CCB1C8",
",. c #CCB3C9",
"<. c #CCB6C9",
"1. c #CABBC8",
"2. c #CFB9CB",
"3. c #CDBACA",
"4. c #C9BCC8",
"5. c #CBBCC9",
"6. c #CDBDCA",
"7. c #D3BACF",
"8. c #C9C3C8",
"9. c #CBC4C9",
"0. c #D1C7CF",
"q. c #D5C4D2",
"w. c #D6C9D4",
"e. c #DDCDDB",
"r. c #D6D5D6",
"t. c #D6D6D6",
"y. c #DDD2DC",
"u. c #DFD5DD",
"i. c #DFD4DE",
"p. c #DEE2DF",
"a. c #E3DDE2",
"s. c #DFE5E1",
"d. c #E1E6E2",
"f. c #E2E9E3",
"g. c #E5E8E6",
"h. c #E5EAE7",
"j. c #E3ECE5",
"k. c #EEE5ED",
"l. c #EFE6EE",
"z. c #E8EDE9",
"x. c #E9EDEA",
"c. c #EBEFEC",
"v. c #E5F1E7",
"b. c #E9F0EA",
"n. c #EAF1EB",
"m. c #F7F2F6",
"M. c #F6F5F5",
"N. c #F5F9F6",
"B. c #F2FCF4",
"V. c #F6FFF9",
"C. c #F9F8F9",
"Z. c #FAFBFA",
"A. c #FBFCFB",
"S. c #F9FFFA",
"D. c #FEFBFD",
"F. c #FFF9FF",
"G. c #FCFFFC",
"H. c #FDFFFE",
"J. c #FDFFFF",
"K. c #FEFFFF",
"L. c #FFFFFF",
"P. c None",
/* pixels */
"P.P.P.P.P.P.P. .<.P.P.P.P.P.P.P.",
"P.P.P.P.P.5.c.N.S.M.e.P.P.P.P.P.",
"P.P.P.Y G.L.B.h.x.L.L.L.>.P.P.P.",
"P.P.B L.v.9._ L K ! 2.L.L.%.P.P.",
"P.P.L.j.@.z s r q 4 9 >.7.@ P.P.",
"P.] L.=.z 4 + 6 l M m A , = n P.",
"P.u.b.C $ Q &.+.4.2.b b I 2 i P.",
". l.t.f - [ 5.&.:.{ D 7 E p u P ",
"  l.t.j ; H ' #.0.q.o.0 A 3 p M ",
"P.y.x.G $ V 1.=. .+.! l I 1 < F ",
"P.( L.=.* f J c w % & g u.m.^ P.",
"P.X D.d.} y ; 4 q r l X.A.L.P.P.",
"P.P.t L.d.8.) T T ' w.L.L.o.P.P.",
"P.P.P.N D.L.b.s.f.V.L.L.E P.P.P.",
"P.P.P.P.O / a.C.S.g.} P.P.P.P.P.",
"P.P.P.P.P.P.P.o P.P.P.P.P.P.P.P."
};
