/* XPM */
static char *bitcoin__[] = {
/* columns rows colors chars-per-pixel */
"80 80 164 2",
"   c #040304",
".  c #090708",
"X  c #0C090C",
"o  c #140E13",
"O  c #171015",
"+  c #181217",
"@  c #1C141A",
"#  c #1F181E",
"$  c #241A23",
"%  c #281D26",
"&  c #2B1E28",
"*  c #2D212A",
"=  c #31242F",
"-  c #332531",
";  c #392936",
":  c #3D2C3A",
">  c #422D3F",
",  c #42303F",
"<  c #463242",
"1  c #493546",
"2  c #483A46",
"3  c #4D3549",
"4  c #4E394A",
"5  c #523C4E",
"6  c #563D52",
"7  c #4E414C",
"8  c #5A4156",
"9  c #5D4F5B",
"0  c #5D525B",
"q  c #62455D",
"w  c #634B5E",
"e  c #63505F",
"r  c #654960",
"t  c #694C64",
"y  c #6E4E69",
"u  c #695566",
"i  c #6B5568",
"p  c #6E5B6B",
"a  c #72536C",
"s  c #765671",
"d  c #7A5474",
"f  c #755B71",
"g  c #7D5B77",
"h  c #7E5D78",
"j  c #766573",
"k  c #7C6377",
"l  c #7D6279",
"z  c #7F697B",
"x  c #835E7D",
"c  c #83627E",
"v  c #8E5C86",
"b  c #905D87",
"n  c #935E8A",
"m  c #876380",
"M  c #8D6486",
"N  c #846D81",
"B  c #8B6A86",
"V  c #8F6588",
"C  c #8E6A89",
"Z  c #93648B",
"A  c #98678F",
"S  c #936C8C",
"D  c #986A8F",
"F  c #897185",
"G  c #94718E",
"H  c #976790",
"J  c #9B6692",
"K  c #976D90",
"L  c #9D6C95",
"P  c #977391",
"I  c #997292",
"U  c #967891",
"Y  c #9B7B95",
"T  c #9E7598",
"R  c #9E7D99",
"E  c #A06B97",
"W  c #A26E9A",
"Q  c #A3739B",
"!  c #A27B9C",
"~  c #A97DA2",
"^  c #B47FAB",
"/  c #9C8197",
"(  c #9E839A",
")  c #9F8C9C",
"_  c #A2839D",
"`  c #A28A9E",
"'  c #A686A1",
"]  c #AB84A5",
"[  c #A68BA2",
"{  c #AA8CA5",
"}  c #AD8BA8",
"|  c #B48AAD",
" . c #A692A3",
".. c #AA92A6",
"X. c #AA98A7",
"o. c #AD94A9",
"O. c #AE9BAB",
"+. c #B195AC",
"@. c #B19BAE",
"#. c #B796B1",
"$. c #B69CB2",
"%. c #B99EB5",
"&. c #AFA3AD",
"*. c #AFACAF",
"=. c #B1A1AE",
"-. c #B5A4B2",
";. c #B9A2B6",
":. c #B6AAB4",
">. c #B9ABB7",
",. c #BDA6BA",
"<. c #BCABBA",
"1. c #BDB2BC",
"2. c #BEBABD",
"3. c #C1A6BC",
"4. c #C1ACBD",
"5. c #C1B3BE",
"6. c #C1B9BF",
"7. c #C4ACC0",
"8. c #C8AFC4",
"9. c #C4B5C2",
"0. c #CAB7C6",
"q. c #C4BCC2",
"w. c #C9BAC7",
"e. c #CDBCCA",
"r. c #D1BECE",
"t. c #C5C3C5",
"y. c #C9C1C7",
"u. c #CAC4C9",
"i. c #CECACE",
"p. c #D1C5CF",
"a. c #D0CBCF",
"s. c #CFCCD0",
"d. c #D3C4D1",
"f. c #D1CDD1",
"g. c #D9CDD7",
"h. c #D4D3D4",
"j. c #D8D5D7",
"k. c #D6D8D7",
"l. c #D8D9D7",
"z. c #DBD3DA",
"x. c #D7D9D8",
"c. c #DADCDA",
"v. c #E1D6DF",
"b. c #E0DADF",
"n. c #DEE1DE",
"m. c #E4DDE3",
"M. c #DFE3E0",
"N. c #E2E5E2",
"B. c #E8E2E7",
"V. c #E5E9E5",
"C. c #EBE5EA",
"Z. c #E7ECE8",
"A. c #EAEDEB",
"S. c #F0ECEF",
"D. c #EDF1ED",
"F. c #EFEFF0",
"G. c #F1EEF1",
"H. c #EFF3F0",
"J. c #F2F5F3",
"K. c #F6F8F6",
"L. c #F8F9F7",
"P. c #F7F9F8",
"I. c #FAFBFA",
"U. c None",
/* pixels */
"U.U.U.U.U.U.U.U.U.U.U.U.U.U.U.U.U.U.U.U.U.U.U.U.U.U.U.U.U.U.U.U.U.U.U.U.U.U.U.U.U.U.U.U.U.U.U.U.U.U.U.U.U.U.U.U.U.U.U.U.U.U.U.U.U.U.U.U.U.U.U.U.U.U.U.U.U.U.U.U.",
"U.U.U.U.U.U.U.U.U.U.U.U.U.U.U.U.U.U.U.U.U.U.U.U.U.U.U.U.U.U.U.U.U.U.U.U.U.U.U.U.U.U.U.U.U.U.U.U.U.U.U.U.U.U.U.U.U.U.U.U.U.U.U.U.U.U.U.U.U.U.U.U.U.U.U.U.U.U.U.U.",
"U.U.U.U.U.U.U.U.U.U.U.U.U.U.U.U.U.U.U.U.U.U.U.U.U.U.U.U.U.U.U.U.U.U.U.U.U.U.U.U.U.U.U.U.U.U.U.U.U.U.U.U.U.U.U.U.U.U.U.U.U.U.U.U.U.U.U.U.U.U.U.U.U.U.U.U.U.U.U.U.",
"U.U.U.U.U.U.U.U.U.U.U.U.U.U.U.U.U.U.U.U.U.U.U.U.U.U.U.U.U.U.U.U.U.U.U.U.4 a l B F c s w 4 U.U.U.U.U.U.U.U.U.U.U.U.U.U.U.U.U.U.U.U.U.U.U.U.U.U.U.U.U.U.U.U.U.U.U.",
"U.U.U.U.U.U.U.U.U.U.U.U.U.U.U.U.U.U.U.U.U.U.U.U.U.U.U.U.U.U.5 y d S ' $.+.,.5.9.w.6.4.;.$.] ! M s i U.U.U.U.U.U.U.U.U.U.U.U.U.U.U.U.U.U.U.U.U.U.U.U.U.U.U.U.U.U.",
"U.U.U.U.U.U.U.U.U.U.U.U.U.U.U.U.U.U.U.U.U.U.U.U.U.U.U.2 c T ` ;.y.M.D.D.J.D.J.D.J.H.L.L.K.K.G.b.e.$.! ! w U.U.U.U.U.U.U.U.U.U.U.U.U.U.U.U.U.U.U.U.U.U.U.U.U.U.U.",
"U.U.U.U.U.U.U.U.U.U.U.U.U.U.U.U.U.U.U.U.U.U.U.U.U.a V [ 1.k.Z.Z.Z.Z.Z.Z.Z.Z.D.D.D.D.D.D.D.J.J.J.K.L.B.g.$.! m U.U.U.U.U.U.U.U.U.U.U.U.U.U.U.U.U.U.U.U.U.U.U.U.U.",
"U.U.U.U.U.U.U.U.U.U.U.U.U.U.U.U.U.U.U.U.U.U.U.i I @.f.V.Z.N.N.N.N.Z.Z.Z.Z.Z.D.Z.S.D.D.J.D.D.J.J.J.K.K.L.I.C.e.~ M 7 U.U.U.U.U.U.U.U.U.U.U.U.U.U.U.U.U.U.U.U.U.U.",
"U.U.U.U.U.U.U.U.U.U.U.U.U.U.U.U.U.U.U.U.U.r S O.h.V.n.N.M.N.N.V.Z.Z.N.Z.Z.A.A.A.D.D.D.D.D.J.H.J.J.J.K.K.K.P.I.S.e.! B U.U.U.U.U.U.U.U.U.U.U.U.U.U.U.U.U.U.U.U.U.",
"U.U.U.U.U.U.U.U.U.U.U.U.U.U.U.U.U.U.U.: x _ i.n.n.n.n.n.M.N.N.N.N.N.Z.Z.Z.Z.A.A.D.D.D.D.D.H.J.J.J.K.J.K.K.K.K.P.I.C.3.L u U.U.U.U.U.U.U.U.U.U.U.U.U.U.U.U.U.U.U.",
"U.U.U.U.U.U.U.U.U.U.U.U.U.U.U.U.U.U.w P 1.n.n.n.n.n.M.n.M.M.N.V.N.Z.Z.Z.Z.Z.Z.A.D.A.D.D.D.J.J.H.J.J.K.K.P.P.P.P.I.I.I.m.] S U.U.U.U.U.U.U.U.U.U.U.U.U.U.U.U.U.U.",
"U.U.U.U.U.U.U.U.U.U.U.U.U.U.U.U.U.g ( u.n.c.c.c.n.n.n.M.n.M.N.N.N.N.N.Z.Z.Z.Z.A.A.D.D.D.D.H.H.J.J.J.J.K.K.K.K.I.I.I.I.I.G.,.K U.U.U.U.U.U.U.U.U.U.U.U.U.U.U.U.U.",
"U.U.U.U.U.U.U.U.U.U.U.U.U.U.U.* c ..c.c.k.c.c.c.c.c.n.n.M.N.M.N.V.N.Z.Z.V.Z.Z.A.A.D.D.S.D.H.H.H.J.J.J.K.K.K.K.P.I.I.I.I.I.I.g.L p U.U.U.U.U.U.U.U.U.U.U.U.U.U.U.",
"U.U.U.U.U.U.U.U.U.U.U.U.U.U.* M @.k.k.l.c.c.c.n.n.n.n.n.M.N.N.N.N.Z.N.Z.Z.Z.Z.D.D.S.D.D.D.D.J.H.J.J.K.J.K.K.L.I.I.I.I.I.I.I.I.v.! f U.U.U.U.U.U.U.U.U.U.U.U.U.U.",
"U.U.U.U.U.U.U.U.U.U.U.U.U.* m =.l.k.k.k.c.k.c.c.c.n.n.n.M.n.N.M.N.N.Z.D.D.D.D.D.Z.Z.H.K.L.K.H.H.J.J.J.J.J.K.K.K.I.I.I.I.I.I.I.I.B.Q j U.U.U.U.U.U.U.U.U.U.U.U.U.",
"U.U.U.U.U.U.U.U.U.U.U.U.% m &.c.h.k.l.k.k.c.c.c.c.c.n.n.M.n.N.V.N.M.u.1.@._ Y P Y T _ ` @.0.j.S.J.J.J.K.K.K.K.K.P.I.I.I.I.I.I.I.I.m.! p U.U.U.U.U.U.U.U.U.U.U.U.",
"U.U.U.U.U.U.U.U.U.U.U.U.x ..h.h.h.k.j.k.l.l.c.c.c.c.n.n.n.M.n.q...P S S S S S D Z S S S Z K K T %.z.J.K.J.J.K.K.I.P.I.I.I.I.I.I.I.I.m.~ U.U.U.U.U.U.U.U.U.U.U.U.",
"U.U.U.U.U.U.U.U.U.U.U.i [ h.h.h.k.h.k.k.l.l.c.c.c.n.n.M.c.:.P V S S V D P ! o.o.@.o.' T K V Z K Z Z ' e.J.I.K.K.I.P.I.I.I.I.I.I.I.I.I.m.Q U.U.U.U.U.U.U.U.U.U.U.",
"U.U.U.U.U.U.U.U.U.U.4 Y i.h.f.h.h.h.k.k.l.c.c.c.c.n.n.<.U S S S S ..1.c.m.B.m.m.m.m.B.B.B.g.,.R Z Z H H ] j.K.P.K.L.I.L.I.I.I.I.I.I.I.r.Z ] U.U.U.U.U.U.U.U.U.U.",
"U.U.U.U.U.U.U.U.U.# S 2.k.h.h.h.k.h.k.k.c.l.l.l.M.h.( V P V U :.m.Z.z.:.{ Y P I K I Y ! o.w.v.F.g.o.v Z L H 3.K.P.K.I.I.I.I.I.I.I.I.r.n J L j U.U.U.U.U.U.U.U.U.",
"U.U.U.U.U.U.U.U.U.a =.h.f.h.h.h.h.k.x.h.c.x.c.c.6.C P S U <.V.j.O.P V S S I I I I I K K K Z H R 9.m.m...v A Z ] m.L.P.P.I.I.I.I.I.8.n J E L ~ U.U.U.U.U.U.U.U.U.",
"U.U.U.U.U.U.U.U.: Y i.h.h.s.h.h.h.h.h.h.x.x.n.:.C P C ..x.k.{ S S S P I I K I I I L I I K L I K D L 9.B.e.K Z L Q m.L.P.I.I.I.I.7.n E E E J J R U.U.U.U.U.U.U.U.",
"U.U.U.U.U.U.U.o c 1.h.f.s.h.h.s.h.h.h.k.x.n.O.C P C 1.V.-.Z S U P P P I I I L I I I I L I I L I K L Z T g.C.[ b L L v.I.I.I.K.#.n E E W J E J W 0 U.U.U.U.U.U.U.",
"U.U.U.U.U.U.U.1 ` s.s.s.h.s.h.h.h.h.k.k.c.:.C P C u.c.( C P P K P P P I I P P I I K I I I L I L I L I L D ,.C.o.b H ~ B.I.C.| n E W J J E E E J ( U.U.U.U.U.U.U.",
"U.U.U.U.U.U.X x 1.h.a.f.f.h.h.h.h.h.h.x.t.C P G t.k.U S P P I P K P P I I K I P K I K L I I I K I L L I L Z +.S.#.v J ] g.] n E W J W E E J E J Q 0 U.U.U.U.U.U.",
"U.U.U.U.U.U.: [ i.f.f.f.f.h.s.f.h.h.x.h.S G C q.h.C S G P P U I P P P I I I I K I I I I I L L I I I L L I J A o.A.{ n L n H E E J W J W J W E E J Y U.U.U.U.U.U.",
"U.U.U.U.U.U.y >.h.f.a.h.h.i.h.f.h.h.l.[ S G :.k.U S P P P P P P K P I P P I I I I I I K I I L L L I I L L L L D %.C.T H E L L L L J W J W W L J J Q U.U.U.U.U.U.",
"U.U.U.U.U.$ U u.i.a.i.a.i.h.f.h.h.c.6.V G ` n./ S I U P I P P P P P P K I P I K K I I I I K I I I L L I L I L I Z 0.c.b L E L L W J E L J W L E E J N U.U.U.U.U.",
"U.U.U.U.U.1 ..h.a.f.f.f.f.f.i.h.s.h.R S U t.-.S P P U I P P P I P P P P I P K I I I I L I K D D K K Z Z L L K L L L m.3.b W L E L E E W W J E E L J | U.U.U.U.U.",
"U.U.U.U.U.s <.f.a.a.s.f.i.h.h.f.h.2.V U U R G G P P I P P P P P P P P P P I I I K K Z V Z K ! o.3.d.m.4.V K L L K A o.S.Z H L L E L E J E E E J E L ~ U.U.U.U.U.",
"U.U.U.U.O G y.i.i.i.h.f.f.a.h.h.k.Y G P P G P P P P P P P P U P P D S S S S S I ' o.9.d.c.A.H.K.J.J.J.C.V K I L L L A g.e.b E L L L W J J E E E L L W U.U.U.U.U.",
"U.U.U.U.= { i.i.i.a.a.f.a.h.a.h.y.C P P P P I P P P U K P K S S G P _ +.<.y.j.N.Z.A.Z.D.D.A.A.D.D.A.D.J.U D L L L K A { C.I J E L W J W W J E L E L J k U.U.U.U.",
"U.U.U.U.3 $.i.a.i.a.i.f.f.f.f.k.-.S P I P P P I P U C Y _ O.1.u.j.n.V.A.Z.Z.Z.Z.N.Z.Z.Z.Z.A.D.J.J.J.H.N.! S L L L I L Z B.;.n E L L E E E E J E E E J B U.U.U.U.",
"U.U.U.. t 1.f.i.a.f.f.a.f.f.f.k.( G P P P P P P P G :.k.M.N.n.n.N.n.M.M.N.n.n.Z.Z.Z.Z.D.Z.N.c.u.<.$.' Y K L I L L L L Z 4.z.b E E L E J E J E E J W J B U.U.U.U.",
"U.U.U.o g q.f.i.a.i.f.f.f.f.f.f.G P P P I U P P P U t.n.c.c.n.c.n.n.n.N.Z.Z.Z.n.k.u.1.o._ P D Z S Z L K I L L I L L L L { C.D H L E L L E L E E L L J K U.U.U.U.",
"U.U.U.o B t.i.i.i.i.i.f.f.a.f.q.S U P P P I U P P P :.c.n.n.n.n.n.k.s.6.*. ./ U Z V S S P I I K S Z Z Z Z K L L L I L L L z.} A L E E E E E J E J L J ~ U.U.U.U.",
"U.U.U.@ P i.i.i.a.i.f.a.s.a.h.:.S G P P P P P P P P O.h.u.q.=. ./ U G S G S S P P G S S Z V Z U _ o.5.f.e.V L K I L L L J z.4.Z E L E L E E E E E J E W U.U.U.U.",
"U.U.U.$ ( i.i.i.a.i.i.a.f.f.j.O.S G U P P P P P P P U G S C S G I P P P S C C V S U _ -.9.f.n.Z.J.J.J.J.J.Y D L L L L K L >.r.Z E L L L E J E J J W E W r U.U.U.",
"U.U.U.& _ f.i.i.i.i.a.f.s.s.x.X.S P I P P I P P P I P P U G S G S S C U ` &.1.u.c.N.Z.D.Z.A.Z.D.A.A.D.H.J. .Z K I L L L A 9.d.b E L L L E J E E W J E J F U.U.U.",
"U.U.U.& ' s.i.i.a.a.a.a.s.s.c...S P P P P P P P P P U C B G ( X.>.u.k.n.M.V.Z.Z.V.V.N.N.Z.Z.D.Z.A.D.J.J.I.O.Z K I L L L A $.g.Z L L W W J W E L W L E J } U.U.U.",
"U.U.U.& ` a.i.i.i.i.i.i.f.f.c.[ S U P P I I P P P P K :.h.c.N.N.n.n.n.n.n.M.N.n.N.N.Z.Z.A.D.D.A.m.x.u.,.} S I L L L L L D ,.g.Z L E L L E L E E E E E J ] U.U.U.",
"U.U.U.% _ i.i.i.i.i.f.i.i.s.l. .C P P P P U P P P P P 2.c.k.c.c.n.n.c.n.N.N.N.Z.D.Z.n.k.y.,.o.! I D D D D I L L L I L L D ,.d.Z L E E L L E J E L L E J ] U.U.U.",
"U.U.U.$ Y i.f.i.i.p.p.a.a.a.x.X.C I U I I P P P P P U *.k.c.c.n.N.N.M.n.l.a.9.$.` ! G Z Z S S L K L Z Z K Z L K K L L L H 0.e.Z E L L E L E E E E E E E Y U.U.U.",
"U.U.U.+ U u.f.i.i.i.a.i.i.f.g.1.S U I P P U I P I P P  .k.c.h.t.5.=.{ / G S S S P S S S S S D I ! o.3.e.v.f.S K L I I L H z.7.Z L L E L E L L E E J L L k U.U.U.",
"U.U.U.o B t.f.i.i.i.i.i.i.s.s.w.S P I P I P P P P I P P R Y P S S S G G I S S M Z G _ ..-.y.l.V.A.D.J.H.H.J.) Z L K L L L m.o.Z L L L L E L E E E E E E u U.U.U.",
"U.U.U.X s w.f.s.i.i.i.i.i.i.s.i.B I P U P P U P P U P P P G G G S G G G _ o.<.y.j.M.Z.D.D.A.Z.Z.A.A.A.D.A.J.:.V I I L L ! C.I J L L L W L L L E E J E W 2 U.U.U.",
"U.U.U.. q 1.s.i.i.i.i.a.f.i.s.h.[ S P P P P P P P P P U S G ( ..-.q.a.c.M.M.N.V.V.N.V.M.V.V.Z.Z.A.D.D.D.H.A.;.Z L L I A ,.m.Z J L L L L E L E J E L L ~ U.U.U.U.",
"U.U.U.U.< $.i.i.i.i.i.i.i.a.i.h.>.B I P P P P P P P P S X.k.n.n.n.n.n.n.n.n.M.M.M.N.V.Z.D.Z.Z.M.l.i.1.O.' P S L I I J Z c.3.V L J E L L E J L L E L J Q U.U.U.U.",
"U.U.U.U.% ` i.i.i.i.i.s.i.i.i.f.u.G G P P I P P P P P S *.n.k.k.c.c.n.n.M.M.N.M.M.n.h.y.<.O._ Y S D S S K K K L I L L ! C.! Z Q Q Z J J L L L E E E J S U.U.U.U.",
"U.U.U.U.X B w.i.i.i.s.i.p.s.s.s.k.( S U U P I P P P P P  .h.k.n.M.M.M.k.h.t.>.X./ Y S S S S S I P I I L I I L I I L Z e.f.Z K z.G.e.! v J E L E E J J l U.U.U.U.",
"U.U.U.U.  r <.f.i.i.i.p.p.i.s.a.h.q.B G I P P U P P P I ( i.i.1.=. ./ G C C S S P P D P P P I I P L I I K L I L I L _ C.! Z +.K.J.L.P.g.} n n L E L ^ U.U.U.U.U.",
"U.U.U.U.U.; ..i.i.i.i.i.i.a.a.a.a.j.` S P P P I P P I U P U G P S G G D P U P P P P P P P P D I I I I K P P L P K Z g.i.b A g.K.P.K.L.L.K.m.#.J n L | U.U.U.U.U.",
"U.U.U.U.U.O B t.s.i.i.i.s.i.i.i.a.h.y.B P P P P P P P I P P I P U P P P P P P I P P P P P I I I I I I K I I P L Z 7.B.K Z +.L.K.J.P.K.L.L.I.I.S.3.E a U.U.U.U.U.",
"U.U.U.U.U.  8 ,.i.i.d.i.i.d.f.i.f.a.h.O.C P P P I P P P P P P P P P P P U P P P P P P P P D I P I I I L L I L H ' A...Z T m.K.J.K.K.L.L.I.I.I.I.G.~ U.U.U.U.U.U.",
"U.U.U.U.U.U.% ! i.i.i.i.i.i.i.s.f.f.f.l.U S P P P C U P P P I P P P U P P I I G I I D P P P I I K I I I K I H Y m.3.Z b p.K.J.J.J.P.P.L.L.L.I.I.r.L U.U.U.U.U.U.",
"U.U.U.U.U.U.. i ,.i.i.i.i.i.s.i.a.a.a.f.u.G P P Y >.C P I U P P P P P I P P P P P I P P P I I K I I K I I H R N.e.V Z $.J.J.J.J.K.J.P.P.L.L.I.J.| 1 U.U.U.U.U.U.",
"U.U.U.U.U.U.U.- ( t.i.i.i.u.s.s.a.a.f.f.h.6.B G / s.6.C S P P G P P I P P P P P U K P P I P I I I K I K Z { B.w.Z Z } J.J.H.J.J.K.J.L.K.L.L.I.d.M U.U.U.U.U.U.U.",
"U.U.U.U.U.U.U.. t -.s.i.i.i.i.p.f.a.f.f.f.k.6.B G Y 2.h./ V G G P P U P P P P P P P P I P I I I P I S D 4.A.;.M Z ..A.J.D.J.J.J.J.J.L.K.P.I.C.] U.U.U.U.U.U.U.U.",
"U.U.U.U.U.U.U.U.$ S t.s.i.i.i.s.i.a.a.f.f.f.k.q.F S G :.k.1.G C S P P P P P P P P I P P P P P S S Z { c.n.{ Z Z o.A.J.A.H.J.J.J.J.L.K.J.P.I.7.Z U.U.U.U.U.U.U.U.",
"U.U.U.U.U.U.U.U.. 5 o.i.i.i.i.i.a.i.f.f.f.f.a.h.a.Y V G ) t.n.>.U M V G I P I U P P P P P D M S { f.A.w.S Z M 4.H.D.D.J.D.H.H.J.J.J.K.L.L.m.E U.U.U.U.U.U.U.U.U.",
"U.U.U.U.U.U.U.U.U.. g :.p.i.i.i.a.i.a.i.f.f.f.f.f.k.=.B S S ) u.n.i.=./ U S C S S S S G P o.w.V.N.q.Y V S R j.J.A.D.D.D.J.J.J.J.J.K.K.K.G.] r U.U.U.U.U.U.U.U.U.",
"U.U.U.U.U.U.U.U.U.U.& S q.s.i.i.a.a.a.a.f.f.f.h.h.h.k.y./ B S G / >.i.c.c.h.u.6.q.i.s.c.m.n.i.-.Y Z V K 5.B.A.A.D.D.D.D.J.D.D.J.J.J.J.L.3.Z U.U.U.U.U.U.U.U.U.U.",
"U.U.U.U.U.U.U.U.U.U.  : _ t.s.i.i.a.f.f.f.f.f.f.h.f.a.h.c.t.` C M V S Y _ @.<.6.1.1.,...R P V v C T 9.N.D.Z.Z.A.A.A.D.D.D.J.J.D.J.J.K.9.L U.U.U.U.U.U.U.U.U.U.U.",
"U.U.U.U.U.U.U.U.U.U.U.. 6 ' u.i.a.i.i.f.f.f.f.f.a.h.h.h.h.h.n.i.>.` U C C C C C C C C C S K ( $.s.V.A.V.Z.A.A.A.D.D.D.J.D.D.J.J.J.J.g.L U.U.U.U.U.U.U.U.U.U.U.U.",
"U.U.U.U.U.U.U.U.U.U.U.U.X r ..u.f.i.a.a.f.f.f.h.a.h.h.h.f.h.h.k.l.c.x.y.1.-.O. ...O.O.1.i.c.N.Z.Z.V.V.Z.Z.Z.Z.Z.A.A.D.D.H.J.H.J.J.z.Q 4 U.U.U.U.U.U.U.U.U.U.U.U.",
"U.U.U.U.U.U.U.U.U.U.U.U.U.X t ..u.a.i.i.i.f.a.f.s.f.s.h.h.h.h.h.k.k.x.x.c.N.M.N.M.V.V.M.M.M.N.N.V.N.N.Z.V.Z.D.Z.A.D.D.A.D.F.H.J.z.L 8 U.U.U.U.U.U.U.U.U.U.U.U.U.",
"U.U.U.U.U.U.U.U.U.U.U.U.U.U.X t { t.f.f.a.f.f.f.f.h.f.h.h.h.h.h.k.h.x.x.l.c.c.c.c.c.n.n.M.M.N.M.N.V.V.V.Z.Z.Z.Z.A.A.A.D.D.A.J.d.I 6 U.U.U.U.U.U.U.U.U.U.U.U.U.U.",
"U.U.U.U.U.U.U.U.U.U.U.U.U.U.U.X 6 R q.a.f.f.i.f.h.a.h.f.f.h.h.h.h.k.z.x.l.l.c.c.n.n.n.n.M.M.N.N.N.V.N.V.Z.Z.Z.Z.D.A.A.D.D.J.3.L < U.U.U.U.U.U.U.U.U.U.U.U.U.U.U.",
"U.U.U.U.U.U.U.U.U.U.U.U.U.U.U.U.. < U -.s.f.i.f.f.f.f.f.h.f.h.k.k.h.k.x.k.c.c.c.c.n.n.c.n.n.M.M.N.N.N.N.V.Z.Z.Z.A.A.D.A.B.%.Z U.U.U.U.U.U.U.U.U.U.U.U.U.U.U.U.U.",
"U.U.U.U.U.U.U.U.U.U.U.U.U.U.U.U.U.  * x O.t.h.f.f.f.h.h.h.h.h.h.h.h.x.x.k.k.c.c.n.c.n.c.n.n.M.M.N.N.V.B.V.V.Z.Z.A.A.J.f.~ d U.U.U.U.U.U.U.U.U.U.U.U.U.U.U.U.U.U.",
"U.U.U.U.U.U.U.U.U.U.U.U.U.U.U.U.U.U.U.X 8 G :.u.h.f.h.f.f.h.h.h.h.k.k.x.c.k.c.c.c.n.c.n.n.n.M.M.N.N.V.V.V.Z.B.Z.D.m.+.Z 4 U.U.U.U.U.U.U.U.U.U.U.U.U.U.U.U.U.U.U.",
"U.U.U.U.U.U.U.U.U.U.U.U.U.U.U.U.U.U.U.U.  & s _ >.s.f.f.h.f.h.h.h.h.k.h.k.c.c.c.c.c.n.n.n.n.M.M.n.N.V.V.V.Z.D.M.3.I a U.U.U.U.U.U.U.U.U.U.U.U.U.U.U.U.U.U.U.U.U.",
"U.U.U.U.U.U.U.U.U.U.U.U.U.U.U.U.U.U.U.U.U.U.. - p _ :.u.h.k.h.h.k.h.k.k.k.j.c.c.k.n.n.n.n.n.n.N.N.M.V.A.Z.k.;.L y U.U.U.U.U.U.U.U.U.U.U.U.U.U.U.U.U.U.U.U.U.U.U.",
"U.U.U.U.U.U.U.U.U.U.U.U.U.U.U.U.U.U.U.U.U.U.U.U.X = t G ..2.i.h.h.k.k.k.l.j.l.c.c.k.n.n.n.N.N.N.V.V.k.6.[ V y $ U.U.U.U.U.U.U.U.U.U.U.U.U.U.U.U.U.U.U.U.U.U.U.U.",
"U.U.U.U.U.U.U.U.U.U.U.U.U.U.U.U.U.U.U.U.U.U.U.U.U.U.. # 1 s P ..,.t.i.h.c.n.n.n.M.N.N.N.N.k.i.9.<._ G s > U.U.U.U.U.U.U.U.U.U.U.U.U.U.U.U.U.U.U.U.U.U.U.U.U.U.U.",
"U.U.U.U.U.U.U.U.U.U.U.U.U.U.U.U.U.U.U.U.U.U.U.U.U.U.U.U.U.  + ; 6 a c U ( { ..O.@.O.{ ) U k r 3 : % U.U.U.U.U.U.U.U.U.U.U.U.U.U.U.U.U.U.U.U.U.U.U.U.U.U.U.U.U.U.",
"U.U.U.U.U.U.U.U.U.U.U.U.U.U.U.U.U.U.U.U.U.U.U.U.U.U.U.U.U.U.U.U.U.X O # & ; , 1 2 1 ; $ @ U.U.U.U.U.U.U.U.U.U.U.U.U.U.U.U.U.U.U.U.U.U.U.U.U.U.U.U.U.U.U.U.U.U.U.",
"U.U.U.U.U.U.U.U.U.U.U.U.U.U.U.U.U.U.U.U.U.U.U.U.U.U.U.U.U.U.U.U.U.U.U.U.U.U.U.U.U.U.U.U.U.U.U.U.U.U.U.U.U.U.U.U.U.U.U.U.U.U.U.U.U.U.U.U.U.U.U.U.U.U.U.U.U.U.U.U.",
"U.U.U.U.U.U.U.U.U.U.U.U.U.U.U.U.U.U.U.U.U.U.U.U.U.U.U.U.U.U.U.U.U.U.U.U.U.U.U.U.U.U.U.U.U.U.U.U.U.U.U.U.U.U.U.U.U.U.U.U.U.U.U.U.U.U.U.U.U.U.U.U.U.U.U.U.U.U.U.U.",
"U.U.U.U.U.U.U.U.U.U.U.U.U.U.U.U.U.U.U.U.U.U.U.U.U.U.U.U.U.U.U.U.U.U.U.U.U.U.U.U.U.U.U.U.U.U.U.U.U.U.U.U.U.U.U.U.U.U.U.U.U.U.U.U.U.U.U.U.U.U.U.U.U.U.U.U.U.U.U.U."
};
